REM MD5 5004270d915a57739f4bded81c8d0ff9
FILE "X-COM - Terror from the Deep (Europe) (En,Fr,De,Es,It).bin" BINARY
  TRACK 01 MODE2/2352
    INDEX 01 00:00:00
  TRACK 02 AUDIO
    INDEX 00 11:01:10
    INDEX 01 11:03:10
  TRACK 03 AUDIO
    INDEX 00 20:00:28
    INDEX 01 20:02:28
  TRACK 04 AUDIO
    INDEX 00 28:39:68
    INDEX 01 28:41:68
  TRACK 05 AUDIO
    INDEX 00 37:14:41
    INDEX 01 37:16:41
  TRACK 06 AUDIO
    INDEX 00 46:31:51
    INDEX 01 46:33:51
REM LEADOUT 51:12:24
